<?xml version="1.0" standalone="no"?><!DOCTYPE svg PUBLIC "-//W3C//DTD SVG 1.1//EN" "http://www.w3.org/Graphics/SVG/1.1/DTD/svg11.dtd"><svg t="1657712082812" class="icon" viewBox="0 0 1024 1024" version="1.1" xmlns="http://www.w3.org/2000/svg" p-id="6125" xmlns:xlink="http://www.w3.org/1999/xlink" width="48" height="48"><defs><style type="text/css"></style></defs><path d="M512 1024C229.7 1024 0 794.3 0 512S229.7 0 512 0s512 229.7 512 512-229.7 512-512 512z m0-952.6C269.1 71.4 71.4 269 71.4 512S269 952.6 512 952.6 952.6 755 952.6 512 754.9 71.4 512 71.4z" fill="#707070" p-id="6126"></path><path d="M774 381H250c-19.7 0-35.7-16-35.7-35.7 0-19.7 16-35.7 35.7-35.7h523.9c19.7 0 35.7 16 35.7 35.7 0.1 19.7-15.9 35.7-35.6 35.7zM774 547.7H250c-19.7 0-35.7-16-35.7-35.7s16-35.7 35.7-35.7h523.9c19.7 0 35.7 16 35.7 35.7s-15.9 35.7-35.6 35.7zM774 714.4H250c-19.7 0-35.7-16-35.7-35.7 0-19.7 16-35.7 35.7-35.7h523.9c19.7 0 35.7 16 35.7 35.7 0.1 19.7-15.9 35.7-35.6 35.7z" fill="#707070" p-id="6127"></path></svg>